<svg xmlns="http://www.w3.org/2000/svg" version="1.1" xmlns:xlink="http://www.w3.org/1999/xlink" xmlns:svgjs="http://svgjs.com/svgjs" width="1440" height="560" preserveAspectRatio="none" viewBox="0 0 1440 560"><g mask="url(&quot;#SvgjsMask1486&quot;)" fill="none"><rect width="1440" height="560" x="0" y="0" fill="url(#SvgjsLinearGradient1487)"></rect><path d="M14.69 -51.27L72.72 -17.77L72.72 49.23L14.69 82.73L-43.34 49.23L-43.34 -17.77zM72.72 49.23L130.74 82.73L130.74 149.73L72.72 183.23L14.69 149.73L14.69 82.73zM188.77 49.23L246.79 82.73L246.79 149.73L188.77 183.23L130.74 149.73L130.74 82.73zM130.74 149.73L188.77 183.23L188.77 250.23L130.74 283.73L72.72 250.23L72.72 183.23zM188.77 250.23L246.79 283.73L246.79 350.73L188.77 384.23L130.74 350.73L130.74 283.73zM246.79 551.73L304.82 585.23L304.82 652.23L246.79 685.73L188.77 652.23L188.77 585.23zM362.84 149.73L420.87 183.23L420.87 250.23L362.84 283.73L304.82 250.23L304.82 183.23zM420.87 250.23L478.89 283.73L478.89 350.73L420.87 384.23L362.84 350.73L362.84 283.73zM362.84 350.73L420.87 384.23L420.87 451.23L362.84 484.73L304.82 451.23L304.82 384.23zM536.92 250.23L594.94 283.73L594.94 350.73L536.92 384.23L478.89 350.73L478.89 283.73zM478.89 350.73L536.92 384.23L536.92 451.23L478.89 484.73L420.87 451.23L420.87 384.23zM594.94 551.73L652.97 585.23L652.97 652.23L594.94 685.73L536.92 652.23L536.92 585.23zM710.99 551.73L769.02 585.23L769.02 652.23L710.99 685.73L652.97 652.23L652.97 585.23zM827.04 551.73L885.07 585.23L885.07 652.23L827.04 685.73L769.02 652.23L769.02 585.23zM1001.12 49.23L1059.15 82.73L1059.15 149.73L1001.12 183.23L943.1 149.73L943.1 82.73zM1117.17 451.23L1175.2 484.73L1175.2 551.73L1117.17 585.23L1059.15 551.73L1059.15 484.73zM1059.15 551.73L1117.17 585.23L1117.17 652.23L1059.15 685.73L1001.12 652.23L1001.12 585.23zM1233.22 250.23L1291.25 283.73L1291.25 350.73L1233.22 384.23L1175.2 350.73L1175.2 283.73zM1233.22 451.23L1291.25 484.73L1291.25 551.73L1233.22 585.23L1175.2 551.73L1175.2 484.73zM1175.2 551.73L1233.22 585.23L1233.22 652.23L1175.2 685.73L1117.17 652.23L1117.17 585.23zM1291.25 -51.27L1349.27 -17.77L1349.27 49.23L1291.25 82.73L1233.22 49.23L1233.22 -17.77zM1291.25 149.73L1349.27 183.23L1349.27 250.23L1291.25 283.73L1233.22 250.23L1233.22 183.23zM1349.27 250.23L1407.3 283.73L1407.3 350.73L1349.27 384.23L1291.25 350.73L1291.25 283.73zM1291.25 350.73L1349.27 384.23L1349.27 451.23L1291.25 484.73L1233.22 451.23L1233.22 384.23zM1407.3 -51.27L1465.32 -17.77L1465.32 49.23L1407.3 82.73L1349.27 49.23L1349.27 -17.77z" stroke="rgba(52, 86, 121, 1)" stroke-width="2"></path><path d="M7.99 -51.27 a6.7 6.7 0 1 0 13.4 0 a6.7 6.7 0 1 0 -13.4 0zM66.02 -17.77 a6.7 6.7 0 1 0 13.4 0 a6.7 6.7 0 1 0 -13.4 0zM66.02 49.23 a6.7 6.7 0 1 0 13.4 0 a6.7 6.7 0 1 0 -13.4 0zM7.99 82.73 a6.7 6.7 0 1 0 13.4 0 a6.7 6.7 0 1 0 -13.4 0zM-50.04 49.23 a6.7 6.7 0 1 0 13.4 0 a6.7 6.7 0 1 0 -13.4 0zM-50.04 -17.77 a6.7 6.7 0 1 0 13.4 0 a6.7 6.7 0 1 0 -13.4 0zM124.04 82.73 a6.7 6.7 0 1 0 13.4 0 a6.7 6.7 0 1 0 -13.4 0zM124.04 149.73 a6.7 6.7 0 1 0 13.4 0 a6.7 6.7 0 1 0 -13.4 0zM66.02 183.23 a6.7 6.7 0 1 0 13.4 0 a6.7 6.7 0 1 0 -13.4 0zM7.99 149.73 a6.7 6.7 0 1 0 13.4 0 a6.7 6.7 0 1 0 -13.4 0zM182.07 49.23 a6.7 6.7 0 1 0 13.4 0 a6.7 6.7 0 1 0 -13.4 0zM240.09 82.73 a6.7 6.7 0 1 0 13.4 0 a6.7 6.7 0 1 0 -13.4 0zM240.09 149.73 a6.7 6.7 0 1 0 13.4 0 a6.7 6.7 0 1 0 -13.4 0zM182.07 183.23 a6.7 6.7 0 1 0 13.4 0 a6.7 6.7 0 1 0 -13.4 0zM182.07 250.23 a6.7 6.7 0 1 0 13.4 0 a6.7 6.7 0 1 0 -13.4 0zM124.04 283.73 a6.7 6.7 0 1 0 13.4 0 a6.7 6.7 0 1 0 -13.4 0zM66.02 250.23 a6.7 6.7 0 1 0 13.4 0 a6.7 6.7 0 1 0 -13.4 0zM240.09 283.73 a6.7 6.7 0 1 0 13.4 0 a6.7 6.7 0 1 0 -13.4 0zM240.09 350.73 a6.7 6.7 0 1 0 13.4 0 a6.7 6.7 0 1 0 -13.4 0zM182.07 384.23 a6.7 6.7 0 1 0 13.4 0 a6.7 6.7 0 1 0 -13.4 0zM124.04 350.73 a6.7 6.7 0 1 0 13.4 0 a6.7 6.7 0 1 0 -13.4 0zM240.09 551.73 a6.7 6.7 0 1 0 13.4 0 a6.7 6.7 0 1 0 -13.4 0zM298.12 585.23 a6.7 6.7 0 1 0 13.4 0 a6.7 6.7 0 1 0 -13.4 0zM298.12 652.23 a6.7 6.7 0 1 0 13.4 0 a6.7 6.7 0 1 0 -13.4 0zM240.09 685.73 a6.7 6.7 0 1 0 13.4 0 a6.7 6.7 0 1 0 -13.4 0zM182.07 652.23 a6.7 6.7 0 1 0 13.4 0 a6.7 6.7 0 1 0 -13.4 0zM182.07 585.23 a6.7 6.7 0 1 0 13.4 0 a6.7 6.7 0 1 0 -13.4 0zM356.14 149.73 a6.7 6.7 0 1 0 13.4 0 a6.7 6.7 0 1 0 -13.4 0zM414.17 183.23 a6.7 6.7 0 1 0 13.4 0 a6.7 6.7 0 1 0 -13.4 0zM414.17 250.23 a6.7 6.7 0 1 0 13.4 0 a6.7 6.7 0 1 0 -13.4 0zM356.14 283.73 a6.7 6.7 0 1 0 13.4 0 a6.7 6.7 0 1 0 -13.4 0zM298.12 250.23 a6.7 6.7 0 1 0 13.4 0 a6.7 6.7 0 1 0 -13.4 0zM298.12 183.23 a6.7 6.7 0 1 0 13.4 0 a6.7 6.7 0 1 0 -13.4 0zM472.19 283.73 a6.7 6.7 0 1 0 13.4 0 a6.7 6.7 0 1 0 -13.4 0zM472.19 350.73 a6.7 6.7 0 1 0 13.4 0 a6.7 6.7 0 1 0 -13.4 0zM414.17 384.23 a6.7 6.7 0 1 0 13.4 0 a6.7 6.7 0 1 0 -13.4 0zM356.14 350.73 a6.7 6.7 0 1 0 13.4 0 a6.7 6.7 0 1 0 -13.4 0zM414.17 451.23 a6.7 6.7 0 1 0 13.4 0 a6.7 6.7 0 1 0 -13.4 0zM356.14 484.73 a6.7 6.7 0 1 0 13.4 0 a6.7 6.7 0 1 0 -13.4 0zM298.12 451.23 a6.7 6.7 0 1 0 13.4 0 a6.7 6.7 0 1 0 -13.4 0zM298.12 384.23 a6.7 6.7 0 1 0 13.4 0 a6.7 6.7 0 1 0 -13.4 0zM530.22 250.23 a6.7 6.7 0 1 0 13.4 0 a6.7 6.7 0 1 0 -13.4 0zM588.24 283.73 a6.7 6.7 0 1 0 13.4 0 a6.7 6.7 0 1 0 -13.4 0zM588.24 350.73 a6.7 6.7 0 1 0 13.4 0 a6.7 6.7 0 1 0 -13.4 0zM530.22 384.23 a6.7 6.7 0 1 0 13.4 0 a6.7 6.7 0 1 0 -13.4 0zM530.22 451.23 a6.7 6.7 0 1 0 13.4 0 a6.7 6.7 0 1 0 -13.4 0zM472.19 484.73 a6.7 6.7 0 1 0 13.4 0 a6.7 6.7 0 1 0 -13.4 0zM588.24 551.73 a6.7 6.7 0 1 0 13.4 0 a6.7 6.7 0 1 0 -13.4 0zM646.27 585.23 a6.7 6.7 0 1 0 13.4 0 a6.7 6.7 0 1 0 -13.4 0zM646.27 652.23 a6.7 6.7 0 1 0 13.4 0 a6.7 6.7 0 1 0 -13.4 0zM588.24 685.73 a6.7 6.7 0 1 0 13.4 0 a6.7 6.7 0 1 0 -13.4 0zM530.22 652.23 a6.7 6.7 0 1 0 13.4 0 a6.7 6.7 0 1 0 -13.4 0zM530.22 585.23 a6.7 6.7 0 1 0 13.4 0 a6.7 6.7 0 1 0 -13.4 0zM704.29 551.73 a6.7 6.7 0 1 0 13.4 0 a6.7 6.7 0 1 0 -13.4 0zM762.32 585.23 a6.7 6.7 0 1 0 13.4 0 a6.7 6.7 0 1 0 -13.4 0zM762.32 652.23 a6.7 6.7 0 1 0 13.4 0 a6.7 6.7 0 1 0 -13.4 0zM704.29 685.73 a6.7 6.7 0 1 0 13.4 0 a6.7 6.7 0 1 0 -13.4 0zM820.34 551.73 a6.7 6.7 0 1 0 13.4 0 a6.7 6.7 0 1 0 -13.4 0zM878.37 585.23 a6.7 6.7 0 1 0 13.4 0 a6.7 6.7 0 1 0 -13.4 0zM878.37 652.23 a6.7 6.7 0 1 0 13.4 0 a6.7 6.7 0 1 0 -13.4 0zM820.34 685.73 a6.7 6.7 0 1 0 13.4 0 a6.7 6.7 0 1 0 -13.4 0zM994.42 49.23 a6.7 6.7 0 1 0 13.4 0 a6.7 6.7 0 1 0 -13.4 0zM1052.45 82.73 a6.7 6.7 0 1 0 13.4 0 a6.7 6.7 0 1 0 -13.4 0zM1052.45 149.73 a6.7 6.7 0 1 0 13.4 0 a6.7 6.7 0 1 0 -13.4 0zM994.42 183.23 a6.7 6.7 0 1 0 13.4 0 a6.7 6.7 0 1 0 -13.4 0zM936.4 149.73 a6.7 6.7 0 1 0 13.4 0 a6.7 6.7 0 1 0 -13.4 0zM936.4 82.73 a6.7 6.7 0 1 0 13.4 0 a6.7 6.7 0 1 0 -13.4 0zM1110.47 451.23 a6.7 6.7 0 1 0 13.4 0 a6.7 6.7 0 1 0 -13.4 0zM1168.5 484.73 a6.7 6.7 0 1 0 13.4 0 a6.7 6.7 0 1 0 -13.4 0zM1168.5 551.73 a6.7 6.7 0 1 0 13.4 0 a6.7 6.7 0 1 0 -13.4 0zM1110.47 585.23 a6.7 6.7 0 1 0 13.4 0 a6.7 6.7 0 1 0 -13.4 0zM1052.45 551.73 a6.7 6.7 0 1 0 13.4 0 a6.7 6.7 0 1 0 -13.4 0zM1052.45 484.73 a6.7 6.7 0 1 0 13.4 0 a6.7 6.7 0 1 0 -13.4 0zM1110.47 652.23 a6.7 6.7 0 1 0 13.4 0 a6.7 6.7 0 1 0 -13.4 0zM1052.45 685.73 a6.7 6.7 0 1 0 13.4 0 a6.7 6.7 0 1 0 -13.4 0zM994.42 652.23 a6.7 6.7 0 1 0 13.4 0 a6.7 6.7 0 1 0 -13.4 0zM994.42 585.23 a6.7 6.7 0 1 0 13.4 0 a6.7 6.7 0 1 0 -13.4 0zM1226.52 250.23 a6.7 6.7 0 1 0 13.4 0 a6.7 6.7 0 1 0 -13.4 0zM1284.55 283.73 a6.7 6.7 0 1 0 13.4 0 a6.7 6.7 0 1 0 -13.4 0zM1284.55 350.73 a6.7 6.7 0 1 0 13.4 0 a6.7 6.7 0 1 0 -13.4 0zM1226.52 384.23 a6.7 6.7 0 1 0 13.4 0 a6.7 6.7 0 1 0 -13.4 0zM1168.5 350.73 a6.7 6.7 0 1 0 13.4 0 a6.7 6.7 0 1 0 -13.4 0zM1168.5 283.73 a6.7 6.7 0 1 0 13.4 0 a6.7 6.7 0 1 0 -13.4 0zM1226.52 451.23 a6.7 6.7 0 1 0 13.4 0 a6.7 6.7 0 1 0 -13.4 0zM1284.55 484.73 a6.7 6.7 0 1 0 13.4 0 a6.7 6.7 0 1 0 -13.4 0zM1284.55 551.73 a6.7 6.7 0 1 0 13.4 0 a6.7 6.7 0 1 0 -13.4 0zM1226.52 585.23 a6.7 6.7 0 1 0 13.4 0 a6.7 6.7 0 1 0 -13.4 0zM1226.52 652.23 a6.7 6.7 0 1 0 13.4 0 a6.7 6.7 0 1 0 -13.4 0zM1168.5 685.73 a6.7 6.7 0 1 0 13.4 0 a6.7 6.7 0 1 0 -13.4 0zM1284.55 -51.27 a6.7 6.7 0 1 0 13.4 0 a6.7 6.7 0 1 0 -13.4 0zM1342.57 -17.77 a6.7 6.7 0 1 0 13.4 0 a6.7 6.7 0 1 0 -13.4 0zM1342.57 49.23 a6.7 6.7 0 1 0 13.4 0 a6.7 6.7 0 1 0 -13.4 0zM1284.55 82.73 a6.7 6.7 0 1 0 13.4 0 a6.7 6.7 0 1 0 -13.4 0zM1226.52 49.23 a6.7 6.7 0 1 0 13.4 0 a6.7 6.7 0 1 0 -13.4 0zM1226.52 -17.77 a6.7 6.7 0 1 0 13.4 0 a6.7 6.7 0 1 0 -13.4 0zM1284.55 149.73 a6.7 6.7 0 1 0 13.4 0 a6.7 6.7 0 1 0 -13.4 0zM1342.57 183.23 a6.7 6.7 0 1 0 13.4 0 a6.7 6.7 0 1 0 -13.4 0zM1342.57 250.23 a6.7 6.7 0 1 0 13.4 0 a6.7 6.7 0 1 0 -13.4 0zM1226.52 183.23 a6.7 6.7 0 1 0 13.4 0 a6.7 6.7 0 1 0 -13.4 0zM1400.6 283.73 a6.7 6.7 0 1 0 13.4 0 a6.7 6.7 0 1 0 -13.4 0zM1400.6 350.73 a6.7 6.7 0 1 0 13.4 0 a6.7 6.7 0 1 0 -13.4 0zM1342.57 384.23 a6.7 6.7 0 1 0 13.4 0 a6.7 6.7 0 1 0 -13.4 0zM1342.57 451.23 a6.7 6.7 0 1 0 13.4 0 a6.7 6.7 0 1 0 -13.4 0zM1400.6 -51.27 a6.7 6.7 0 1 0 13.4 0 a6.7 6.7 0 1 0 -13.4 0zM1458.62 -17.77 a6.7 6.7 0 1 0 13.4 0 a6.7 6.7 0 1 0 -13.4 0zM1458.62 49.23 a6.7 6.7 0 1 0 13.4 0 a6.7 6.7 0 1 0 -13.4 0zM1400.6 82.73 a6.7 6.7 0 1 0 13.4 0 a6.7 6.7 0 1 0 -13.4 0z" fill="rgba(52, 86, 121, 1)"></path><path d="M59.39 45.14L88.83 62.14L88.83 96.14L59.39 113.14L29.94 96.14L29.94 62.14zM29.94 300.14L59.39 317.14L59.39 351.14L29.94 368.14L0.49 351.14L0.49 317.14zM59.39 351.14L88.83 368.14L88.83 402.14L59.39 419.14L29.94 402.14L29.94 368.14zM29.94 402.14L59.39 419.14L59.39 453.14L29.94 470.14L0.49 453.14L0.49 419.14zM59.39 453.14L88.83 470.14L88.83 504.14L59.39 521.14L29.94 504.14L29.94 470.14zM29.94 504.14L59.39 521.14L59.39 555.14L29.94 572.14L0.49 555.14L0.49 521.14zM88.83 -5.86L118.28 11.14L118.28 45.14L88.83 62.14L59.39 45.14L59.39 11.14zM88.83 198.14L118.28 215.14L118.28 249.14L88.83 266.14L59.39 249.14L59.39 215.14zM118.28 351.14L147.72 368.14L147.72 402.14L118.28 419.14L88.83 402.14L88.83 368.14zM88.83 402.14L118.28 419.14L118.28 453.14L88.83 470.14L59.39 453.14L59.39 419.14zM118.28 453.14L147.72 470.14L147.72 504.14L118.28 521.14L88.83 504.14L88.83 470.14zM88.83 504.14L118.28 521.14L118.28 555.14L88.83 572.14L59.39 555.14L59.39 521.14zM147.72 96.14L177.17 113.14L177.17 147.14L147.72 164.14L118.28 147.14L118.28 113.14zM177.17 147.14L206.61 164.14L206.61 198.14L177.17 215.14L147.72 198.14L147.72 164.14zM177.17 249.14L206.61 266.14L206.61 300.14L177.17 317.14L147.72 300.14L147.72 266.14zM177.17 351.14L206.61 368.14L206.61 402.14L177.17 419.14L147.72 402.14L147.72 368.14zM147.72 402.14L177.17 419.14L177.17 453.14L147.72 470.14L118.28 453.14L118.28 419.14zM206.61 -5.86L236.06 11.14L236.06 45.14L206.61 62.14L177.17 45.14L177.17 11.14zM206.61 96.14L236.06 113.14L236.06 147.14L206.61 164.14L177.17 147.14L177.17 113.14zM206.61 198.14L236.06 215.14L236.06 249.14L206.61 266.14L177.17 249.14L177.17 215.14zM206.61 402.14L236.06 419.14L236.06 453.14L206.61 470.14L177.17 453.14L177.17 419.14zM206.61 504.14L236.06 521.14L236.06 555.14L206.61 572.14L177.17 555.14L177.17 521.14zM294.95 45.14L324.4 62.14L324.4 96.14L294.95 113.14L265.51 96.14L265.51 62.14zM265.51 96.14L294.95 113.14L294.95 147.14L265.51 164.14L236.06 147.14L236.06 113.14zM265.51 198.14L294.95 215.14L294.95 249.14L265.51 266.14L236.06 249.14L236.06 215.14zM294.95 249.14L324.4 266.14L324.4 300.14L294.95 317.14L265.51 300.14L265.51 266.14zM265.51 300.14L294.95 317.14L294.95 351.14L265.51 368.14L236.06 351.14L236.06 317.14zM294.95 351.14L324.4 368.14L324.4 402.14L294.95 419.14L265.51 402.14L265.51 368.14zM265.51 402.14L294.95 419.14L294.95 453.14L265.51 470.14L236.06 453.14L236.06 419.14zM324.4 -5.86L353.84 11.14L353.84 45.14L324.4 62.14L294.95 45.14L294.95 11.14zM324.4 96.14L353.84 113.14L353.84 147.14L324.4 164.14L294.95 147.14L294.95 113.14zM353.84 147.14L383.29 164.14L383.29 198.14L353.84 215.14L324.4 198.14L324.4 164.14zM324.4 198.14L353.84 215.14L353.84 249.14L324.4 266.14L294.95 249.14L294.95 215.14zM324.4 300.14L353.84 317.14L353.84 351.14L324.4 368.14L294.95 351.14L294.95 317.14zM353.84 555.14L383.29 572.14L383.29 606.14L353.84 623.14L324.4 606.14L324.4 572.14zM383.29 -5.86L412.73 11.14L412.73 45.14L383.29 62.14L353.84 45.14L353.84 11.14zM383.29 402.14L412.73 419.14L412.73 453.14L383.29 470.14L353.84 453.14L353.84 419.14zM471.63 45.14L501.07 62.14L501.07 96.14L471.63 113.14L442.18 96.14L442.18 62.14zM442.18 96.14L471.63 113.14L471.63 147.14L442.18 164.14L412.73 147.14L412.73 113.14zM471.63 249.14L501.07 266.14L501.07 300.14L471.63 317.14L442.18 300.14L442.18 266.14zM442.18 300.14L471.63 317.14L471.63 351.14L442.18 368.14L412.73 351.14L412.73 317.14zM471.63 351.14L501.07 368.14L501.07 402.14L471.63 419.14L442.18 402.14L442.18 368.14zM501.07 198.14L530.52 215.14L530.52 249.14L501.07 266.14L471.63 249.14L471.63 215.14zM530.52 453.14L559.96 470.14L559.96 504.14L530.52 521.14L501.07 504.14L501.07 470.14zM589.41 45.14L618.85 62.14L618.85 96.14L589.41 113.14L559.96 96.14L559.96 62.14zM559.96 198.14L589.41 215.14L589.41 249.14L559.96 266.14L530.52 249.14L530.52 215.14zM589.41 249.14L618.85 266.14L618.85 300.14L589.41 317.14L559.96 300.14L559.96 266.14zM589.41 351.14L618.85 368.14L618.85 402.14L589.41 419.14L559.96 402.14L559.96 368.14zM559.96 402.14L589.41 419.14L589.41 453.14L559.96 470.14L530.52 453.14L530.52 419.14zM618.85 -5.86L648.3 11.14L648.3 45.14L618.85 62.14L589.41 45.14L589.41 11.14zM648.3 351.14L677.75 368.14L677.75 402.14L648.3 419.14L618.85 402.14L618.85 368.14zM648.3 453.14L677.75 470.14L677.75 504.14L648.3 521.14L618.85 504.14L618.85 470.14zM618.85 504.14L648.3 521.14L648.3 555.14L618.85 572.14L589.41 555.14L589.41 521.14zM677.75 96.14L707.19 113.14L707.19 147.14L677.75 164.14L648.3 147.14L648.3 113.14zM707.19 249.14L736.64 266.14L736.64 300.14L707.19 317.14L677.75 300.14L677.75 266.14zM677.75 300.14L707.19 317.14L707.19 351.14L677.75 368.14L648.3 351.14L648.3 317.14zM707.19 453.14L736.64 470.14L736.64 504.14L707.19 521.14L677.75 504.14L677.75 470.14zM707.19 555.14L736.64 572.14L736.64 606.14L707.19 623.14L677.75 606.14L677.75 572.14zM766.08 147.14L795.53 164.14L795.53 198.14L766.08 215.14L736.64 198.14L736.64 164.14zM736.64 198.14L766.08 215.14L766.08 249.14L736.64 266.14L707.19 249.14L707.19 215.14zM766.08 351.14L795.53 368.14L795.53 402.14L766.08 419.14L736.64 402.14L736.64 368.14zM736.64 402.14L766.08 419.14L766.08 453.14L736.64 470.14L707.19 453.14L707.19 419.14zM736.64 504.14L766.08 521.14L766.08 555.14L736.64 572.14L707.19 555.14L707.19 521.14zM766.08 555.14L795.53 572.14L795.53 606.14L766.08 623.14L736.64 606.14L736.64 572.14zM824.97 45.14L854.42 62.14L854.42 96.14L824.97 113.14L795.53 96.14L795.53 62.14zM795.53 198.14L824.97 215.14L824.97 249.14L795.53 266.14L766.08 249.14L766.08 215.14zM795.53 504.14L824.97 521.14L824.97 555.14L795.53 572.14L766.08 555.14L766.08 521.14zM824.97 555.14L854.42 572.14L854.42 606.14L824.97 623.14L795.53 606.14L795.53 572.14zM883.87 45.14L913.31 62.14L913.31 96.14L883.87 113.14L854.42 96.14L854.42 62.14zM854.42 96.14L883.87 113.14L883.87 147.14L854.42 164.14L824.97 147.14L824.97 113.14zM854.42 198.14L883.87 215.14L883.87 249.14L854.42 266.14L824.97 249.14L824.97 215.14zM883.87 453.14L913.31 470.14L913.31 504.14L883.87 521.14L854.42 504.14L854.42 470.14zM854.42 504.14L883.87 521.14L883.87 555.14L854.42 572.14L824.97 555.14L824.97 521.14zM942.76 45.14L972.2 62.14L972.2 96.14L942.76 113.14L913.31 96.14L913.31 62.14zM913.31 96.14L942.76 113.14L942.76 147.14L913.31 164.14L883.87 147.14L883.87 113.14zM942.76 147.14L972.2 164.14L972.2 198.14L942.76 215.14L913.31 198.14L913.31 164.14zM942.76 249.14L972.2 266.14L972.2 300.14L942.76 317.14L913.31 300.14L913.31 266.14zM913.31 504.14L942.76 521.14L942.76 555.14L913.31 572.14L883.87 555.14L883.87 521.14zM942.76 555.14L972.2 572.14L972.2 606.14L942.76 623.14L913.31 606.14L913.31 572.14zM972.2 402.14L1001.65 419.14L1001.65 453.14L972.2 470.14L942.76 453.14L942.76 419.14zM972.2 504.14L1001.65 521.14L1001.65 555.14L972.2 572.14L942.76 555.14L942.76 521.14zM1031.09 -5.86L1060.54 11.14L1060.54 45.14L1031.09 62.14L1001.65 45.14L1001.65 11.14zM1031.09 96.14L1060.54 113.14L1060.54 147.14L1031.09 164.14L1001.65 147.14L1001.65 113.14zM1060.54 147.14L1089.99 164.14L1089.99 198.14L1060.54 215.14L1031.09 198.14L1031.09 164.14zM1031.09 198.14L1060.54 215.14L1060.54 249.14L1031.09 266.14L1001.65 249.14L1001.65 215.14zM1031.09 300.14L1060.54 317.14L1060.54 351.14L1031.09 368.14L1001.65 351.14L1001.65 317.14zM1119.43 45.14L1148.88 62.14L1148.88 96.14L1119.43 113.14L1089.99 96.14L1089.99 62.14zM1089.99 96.14L1119.43 113.14L1119.43 147.14L1089.99 164.14L1060.54 147.14L1060.54 113.14zM1119.43 249.14L1148.88 266.14L1148.88 300.14L1119.43 317.14L1089.99 300.14L1089.99 266.14zM1119.43 351.14L1148.88 368.14L1148.88 402.14L1119.43 419.14L1089.99 402.14L1089.99 368.14zM1089.99 402.14L1119.43 419.14L1119.43 453.14L1089.99 470.14L1060.54 453.14L1060.54 419.14zM1148.88 -5.86L1178.32 11.14L1178.32 45.14L1148.88 62.14L1119.43 45.14L1119.43 11.14zM1148.88 402.14L1178.32 419.14L1178.32 453.14L1148.88 470.14L1119.43 453.14L1119.43 419.14zM1178.32 453.14L1207.77 470.14L1207.77 504.14L1178.32 521.14L1148.88 504.14L1148.88 470.14zM1148.88 504.14L1178.32 521.14L1178.32 555.14L1148.88 572.14L1119.43 555.14L1119.43 521.14zM1207.77 96.14L1237.21 113.14L1237.21 147.14L1207.77 164.14L1178.32 147.14L1178.32 113.14zM1237.21 147.14L1266.66 164.14L1266.66 198.14L1237.21 215.14L1207.77 198.14L1207.77 164.14zM1207.77 198.14L1237.21 215.14L1237.21 249.14L1207.77 266.14L1178.32 249.14L1178.32 215.14zM1207.77 402.14L1237.21 419.14L1237.21 453.14L1207.77 470.14L1178.32 453.14L1178.32 419.14zM1266.66 -5.86L1296.11 11.14L1296.11 45.14L1266.66 62.14L1237.21 45.14L1237.21 11.14zM1266.66 96.14L1296.11 113.14L1296.11 147.14L1266.66 164.14L1237.21 147.14L1237.21 113.14zM1266.66 198.14L1296.11 215.14L1296.11 249.14L1266.66 266.14L1237.21 249.14L1237.21 215.14zM1296.11 249.14L1325.55 266.14L1325.55 300.14L1296.11 317.14L1266.66 300.14L1266.66 266.14zM1296.11 351.14L1325.55 368.14L1325.55 402.14L1296.11 419.14L1266.66 402.14L1266.66 368.14zM1296.11 453.14L1325.55 470.14L1325.55 504.14L1296.11 521.14L1266.66 504.14L1266.66 470.14zM1266.66 504.14L1296.11 521.14L1296.11 555.14L1266.66 572.14L1237.21 555.14L1237.21 521.14zM1355 45.14L1384.44 62.14L1384.44 96.14L1355 113.14L1325.55 96.14L1325.55 62.14zM1325.55 198.14L1355 215.14L1355 249.14L1325.55 266.14L1296.11 249.14L1296.11 215.14zM1325.55 504.14L1355 521.14L1355 555.14L1325.55 572.14L1296.11 555.14L1296.11 521.14zM1384.44 -5.86L1413.89 11.14L1413.89 45.14L1384.44 62.14L1355 45.14L1355 11.14zM1413.89 45.14L1443.33 62.14L1443.33 96.14L1413.89 113.14L1384.44 96.14L1384.44 62.14zM1384.44 96.14L1413.89 113.14L1413.89 147.14L1384.44 164.14L1355 147.14L1355 113.14zM1384.44 198.14L1413.89 215.14L1413.89 249.14L1384.44 266.14L1355 249.14L1355 215.14zM1384.44 504.14L1413.89 521.14L1413.89 555.14L1384.44 572.14L1355 555.14L1355 521.14zM1443.33 96.14L1472.78 113.14L1472.78 147.14L1443.33 164.14L1413.89 147.14L1413.89 113.14zM1472.78 147.14L1502.22 164.14L1502.22 198.14L1472.78 215.14L1443.33 198.14L1443.33 164.14zM1443.33 198.14L1472.78 215.14L1472.78 249.14L1443.33 266.14L1413.89 249.14L1413.89 215.14zM1472.78 351.14L1502.22 368.14L1502.22 402.14L1472.78 419.14L1443.33 402.14L1443.33 368.14zM1443.33 402.14L1472.78 419.14L1472.78 453.14L1443.33 470.14L1413.89 453.14L1413.89 419.14z" stroke="rgba(0, 0, 0, 0.93)" stroke-width="2"></path></g><defs><mask id="SvgjsMask1486"><rect width="1440" height="560" fill="#ffffff"></rect></mask><linearGradient x1="15.28%" y1="-39.29%" x2="84.72%" y2="139.29%" gradientUnits="userSpaceOnUse" id="SvgjsLinearGradient1487"><stop stop-color="#0e2a47" offset="0"></stop><stop stop-color="rgba(0, 30, 68, 1)" offset="1"></stop></linearGradient></defs></svg>