<svg xmlns="http://www.w3.org/2000/svg" version="1.1" xmlns:xlink="http://www.w3.org/1999/xlink" xmlns:svgjs="http://svgjs.com/svgjs" width="1440" height="560" preserveAspectRatio="none" viewBox="0 0 1440 560"><g mask="url(&quot;#SvgjsMask1464&quot;)" fill="none"><rect width="1440" height="560" x="0" y="0" fill="url(#SvgjsLinearGradient1465)"></rect><path d="M42.85 -1.55L100.88 31.95L100.88 98.95L42.85 132.45L-15.18 98.95L-15.18 31.95zM100.88 98.95L158.9 132.45L158.9 199.45L100.88 232.95L42.85 199.45L42.85 132.45zM42.85 199.45L100.88 232.95L100.88 299.95L42.85 333.45L-15.18 299.95L-15.18 232.95zM100.88 299.95L158.9 333.45L158.9 400.45L100.88 433.95L42.85 400.45L42.85 333.45zM100.88 500.95L158.9 534.45L158.9 601.45L100.88 634.95L42.85 601.45L42.85 534.45zM158.9 -1.55L216.93 31.95L216.93 98.95L158.9 132.45L100.88 98.95L100.88 31.95zM216.93 299.95L274.95 333.45L274.95 400.45L216.93 433.95L158.9 400.45L158.9 333.45zM158.9 400.45L216.93 433.95L216.93 500.95L158.9 534.45L100.88 500.95L100.88 433.95zM216.93 500.95L274.95 534.45L274.95 601.45L216.93 634.95L158.9 601.45L158.9 534.45zM158.9 601.45L216.93 634.95L216.93 701.95L158.9 735.45L100.88 701.95L100.88 634.95zM332.98 98.95L391 132.45L391 199.45L332.98 232.95L274.95 199.45L274.95 132.45zM274.95 601.45L332.98 634.95L332.98 701.95L274.95 735.45L216.93 701.95L216.93 634.95zM391 -1.55L449.03 31.95L449.03 98.95L391 132.45L332.98 98.95L332.98 31.95zM391 199.45L449.03 232.95L449.03 299.95L391 333.45L332.98 299.95L332.98 232.95zM391 400.45L449.03 433.95L449.03 500.95L391 534.45L332.98 500.95L332.98 433.95zM507.05 -1.55L565.08 31.95L565.08 98.95L507.05 132.45L449.03 98.95L449.03 31.95zM507.05 400.45L565.08 433.95L565.08 500.95L507.05 534.45L449.03 500.95L449.03 433.95zM623.1 199.45L681.13 232.95L681.13 299.95L623.1 333.45L565.08 299.95L565.08 232.95zM797.18 98.95L855.2 132.45L855.2 199.45L797.18 232.95L739.15 199.45L739.15 132.45zM739.15 199.45L797.18 232.95L797.18 299.95L739.15 333.45L681.13 299.95L681.13 232.95zM797.18 299.95L855.2 333.45L855.2 400.45L797.18 433.95L739.15 400.45L739.15 333.45zM797.18 500.95L855.2 534.45L855.2 601.45L797.18 634.95L739.15 601.45L739.15 534.45zM855.2 -1.55L913.23 31.95L913.23 98.95L855.2 132.45L797.18 98.95L797.18 31.95zM855.2 400.45L913.23 433.95L913.23 500.95L855.2 534.45L797.18 500.95L797.18 433.95zM913.23 500.95L971.26 534.45L971.26 601.45L913.23 634.95L855.2 601.45L855.2 534.45zM971.26 400.45L1029.28 433.95L1029.28 500.95L971.26 534.45L913.23 500.95L913.23 433.95zM1029.28 500.95L1087.31 534.45L1087.31 601.45L1029.28 634.95L971.26 601.45L971.26 534.45zM1145.33 98.95L1203.36 132.45L1203.36 199.45L1145.33 232.95L1087.31 199.45L1087.31 132.45zM1087.31 199.45L1145.33 232.95L1145.33 299.95L1087.31 333.45L1029.28 299.95L1029.28 232.95zM1087.31 601.45L1145.33 634.95L1145.33 701.95L1087.31 735.45L1029.28 701.95L1029.28 634.95zM1261.38 98.95L1319.41 132.45L1319.41 199.45L1261.38 232.95L1203.36 199.45L1203.36 132.45zM1261.38 299.95L1319.41 333.45L1319.41 400.45L1261.38 433.95L1203.36 400.45L1203.36 333.45zM1203.36 601.45L1261.38 634.95L1261.38 701.95L1203.36 735.45L1145.33 701.95L1145.33 634.95zM1319.41 -1.55L1377.43 31.95L1377.43 98.95L1319.41 132.45L1261.38 98.95L1261.38 31.95zM1377.43 500.95L1435.46 534.45L1435.46 601.45L1377.43 634.95L1319.41 601.45L1319.41 534.45zM1435.46 -1.55L1493.48 31.95L1493.48 98.95L1435.46 132.45L1377.43 98.95L1377.43 31.95z" stroke="rgba(52, 86, 121, 1)" stroke-width="2"></path><path d="M36.15 -1.55 a6.7 6.7 0 1 0 13.4 0 a6.7 6.7 0 1 0 -13.4 0zM94.18 31.95 a6.7 6.7 0 1 0 13.4 0 a6.7 6.7 0 1 0 -13.4 0zM94.18 98.95 a6.7 6.7 0 1 0 13.4 0 a6.7 6.7 0 1 0 -13.4 0zM36.15 132.45 a6.7 6.7 0 1 0 13.4 0 a6.7 6.7 0 1 0 -13.4 0zM-21.88 98.95 a6.7 6.7 0 1 0 13.4 0 a6.7 6.7 0 1 0 -13.4 0zM-21.88 31.95 a6.7 6.7 0 1 0 13.4 0 a6.7 6.7 0 1 0 -13.4 0zM152.2 132.45 a6.7 6.7 0 1 0 13.4 0 a6.7 6.7 0 1 0 -13.4 0zM152.2 199.45 a6.7 6.7 0 1 0 13.4 0 a6.7 6.7 0 1 0 -13.4 0zM94.18 232.95 a6.7 6.7 0 1 0 13.4 0 a6.7 6.7 0 1 0 -13.4 0zM36.15 199.45 a6.7 6.7 0 1 0 13.4 0 a6.7 6.7 0 1 0 -13.4 0zM94.18 299.95 a6.7 6.7 0 1 0 13.4 0 a6.7 6.7 0 1 0 -13.4 0zM36.15 333.45 a6.7 6.7 0 1 0 13.4 0 a6.7 6.7 0 1 0 -13.4 0zM-21.88 299.95 a6.7 6.7 0 1 0 13.4 0 a6.7 6.7 0 1 0 -13.4 0zM-21.88 232.95 a6.7 6.7 0 1 0 13.4 0 a6.7 6.7 0 1 0 -13.4 0zM152.2 333.45 a6.7 6.7 0 1 0 13.4 0 a6.7 6.7 0 1 0 -13.4 0zM152.2 400.45 a6.7 6.7 0 1 0 13.4 0 a6.7 6.7 0 1 0 -13.4 0zM94.18 433.95 a6.7 6.7 0 1 0 13.4 0 a6.7 6.7 0 1 0 -13.4 0zM36.15 400.45 a6.7 6.7 0 1 0 13.4 0 a6.7 6.7 0 1 0 -13.4 0zM94.18 500.95 a6.7 6.7 0 1 0 13.4 0 a6.7 6.7 0 1 0 -13.4 0zM152.2 534.45 a6.7 6.7 0 1 0 13.4 0 a6.7 6.7 0 1 0 -13.4 0zM152.2 601.45 a6.7 6.7 0 1 0 13.4 0 a6.7 6.7 0 1 0 -13.4 0zM94.18 634.95 a6.7 6.7 0 1 0 13.4 0 a6.7 6.7 0 1 0 -13.4 0zM36.15 601.45 a6.7 6.7 0 1 0 13.4 0 a6.7 6.7 0 1 0 -13.4 0zM36.15 534.45 a6.7 6.7 0 1 0 13.4 0 a6.7 6.7 0 1 0 -13.4 0zM152.2 -1.55 a6.7 6.7 0 1 0 13.4 0 a6.7 6.7 0 1 0 -13.4 0zM210.23 31.95 a6.7 6.7 0 1 0 13.4 0 a6.7 6.7 0 1 0 -13.4 0zM210.23 98.95 a6.7 6.7 0 1 0 13.4 0 a6.7 6.7 0 1 0 -13.4 0zM210.23 299.95 a6.7 6.7 0 1 0 13.4 0 a6.7 6.7 0 1 0 -13.4 0zM268.25 333.45 a6.7 6.7 0 1 0 13.4 0 a6.7 6.7 0 1 0 -13.4 0zM268.25 400.45 a6.7 6.7 0 1 0 13.4 0 a6.7 6.7 0 1 0 -13.4 0zM210.23 433.95 a6.7 6.7 0 1 0 13.4 0 a6.7 6.7 0 1 0 -13.4 0zM210.23 500.95 a6.7 6.7 0 1 0 13.4 0 a6.7 6.7 0 1 0 -13.4 0zM268.25 534.45 a6.7 6.7 0 1 0 13.4 0 a6.7 6.7 0 1 0 -13.4 0zM268.25 601.45 a6.7 6.7 0 1 0 13.4 0 a6.7 6.7 0 1 0 -13.4 0zM210.23 634.95 a6.7 6.7 0 1 0 13.4 0 a6.7 6.7 0 1 0 -13.4 0zM210.23 701.95 a6.7 6.7 0 1 0 13.4 0 a6.7 6.7 0 1 0 -13.4 0zM152.2 735.45 a6.7 6.7 0 1 0 13.4 0 a6.7 6.7 0 1 0 -13.4 0zM94.18 701.95 a6.7 6.7 0 1 0 13.4 0 a6.7 6.7 0 1 0 -13.4 0zM326.28 98.95 a6.7 6.7 0 1 0 13.4 0 a6.7 6.7 0 1 0 -13.4 0zM384.3 132.45 a6.7 6.7 0 1 0 13.4 0 a6.7 6.7 0 1 0 -13.4 0zM384.3 199.45 a6.7 6.7 0 1 0 13.4 0 a6.7 6.7 0 1 0 -13.4 0zM326.28 232.95 a6.7 6.7 0 1 0 13.4 0 a6.7 6.7 0 1 0 -13.4 0zM268.25 199.45 a6.7 6.7 0 1 0 13.4 0 a6.7 6.7 0 1 0 -13.4 0zM268.25 132.45 a6.7 6.7 0 1 0 13.4 0 a6.7 6.7 0 1 0 -13.4 0zM326.28 634.95 a6.7 6.7 0 1 0 13.4 0 a6.7 6.7 0 1 0 -13.4 0zM326.28 701.95 a6.7 6.7 0 1 0 13.4 0 a6.7 6.7 0 1 0 -13.4 0zM268.25 735.45 a6.7 6.7 0 1 0 13.4 0 a6.7 6.7 0 1 0 -13.4 0zM384.3 -1.55 a6.7 6.7 0 1 0 13.4 0 a6.7 6.7 0 1 0 -13.4 0zM442.33 31.95 a6.7 6.7 0 1 0 13.4 0 a6.7 6.7 0 1 0 -13.4 0zM442.33 98.95 a6.7 6.7 0 1 0 13.4 0 a6.7 6.7 0 1 0 -13.4 0zM326.28 31.95 a6.7 6.7 0 1 0 13.4 0 a6.7 6.7 0 1 0 -13.4 0zM442.33 232.95 a6.7 6.7 0 1 0 13.4 0 a6.7 6.7 0 1 0 -13.4 0zM442.33 299.95 a6.7 6.7 0 1 0 13.4 0 a6.7 6.7 0 1 0 -13.4 0zM384.3 333.45 a6.7 6.7 0 1 0 13.4 0 a6.7 6.7 0 1 0 -13.4 0zM326.28 299.95 a6.7 6.7 0 1 0 13.4 0 a6.7 6.7 0 1 0 -13.4 0zM384.3 400.45 a6.7 6.7 0 1 0 13.4 0 a6.7 6.7 0 1 0 -13.4 0zM442.33 433.95 a6.7 6.7 0 1 0 13.4 0 a6.7 6.7 0 1 0 -13.4 0zM442.33 500.95 a6.7 6.7 0 1 0 13.4 0 a6.7 6.7 0 1 0 -13.4 0zM384.3 534.45 a6.7 6.7 0 1 0 13.4 0 a6.7 6.7 0 1 0 -13.4 0zM326.28 500.95 a6.7 6.7 0 1 0 13.4 0 a6.7 6.7 0 1 0 -13.4 0zM326.28 433.95 a6.7 6.7 0 1 0 13.4 0 a6.7 6.7 0 1 0 -13.4 0zM500.35 -1.55 a6.7 6.7 0 1 0 13.4 0 a6.7 6.7 0 1 0 -13.4 0zM558.38 31.95 a6.7 6.7 0 1 0 13.4 0 a6.7 6.7 0 1 0 -13.4 0zM558.38 98.95 a6.7 6.7 0 1 0 13.4 0 a6.7 6.7 0 1 0 -13.4 0zM500.35 132.45 a6.7 6.7 0 1 0 13.4 0 a6.7 6.7 0 1 0 -13.4 0zM500.35 400.45 a6.7 6.7 0 1 0 13.4 0 a6.7 6.7 0 1 0 -13.4 0zM558.38 433.95 a6.7 6.7 0 1 0 13.4 0 a6.7 6.7 0 1 0 -13.4 0zM558.38 500.95 a6.7 6.7 0 1 0 13.4 0 a6.7 6.7 0 1 0 -13.4 0zM500.35 534.45 a6.7 6.7 0 1 0 13.4 0 a6.7 6.7 0 1 0 -13.4 0zM616.4 199.45 a6.7 6.7 0 1 0 13.4 0 a6.7 6.7 0 1 0 -13.4 0zM674.43 232.95 a6.7 6.7 0 1 0 13.4 0 a6.7 6.7 0 1 0 -13.4 0zM674.43 299.95 a6.7 6.7 0 1 0 13.4 0 a6.7 6.7 0 1 0 -13.4 0zM616.4 333.45 a6.7 6.7 0 1 0 13.4 0 a6.7 6.7 0 1 0 -13.4 0zM558.38 299.95 a6.7 6.7 0 1 0 13.4 0 a6.7 6.7 0 1 0 -13.4 0zM558.38 232.95 a6.7 6.7 0 1 0 13.4 0 a6.7 6.7 0 1 0 -13.4 0zM790.48 98.95 a6.7 6.7 0 1 0 13.4 0 a6.7 6.7 0 1 0 -13.4 0zM848.5 132.45 a6.7 6.7 0 1 0 13.4 0 a6.7 6.7 0 1 0 -13.4 0zM848.5 199.45 a6.7 6.7 0 1 0 13.4 0 a6.7 6.7 0 1 0 -13.4 0zM790.48 232.95 a6.7 6.7 0 1 0 13.4 0 a6.7 6.7 0 1 0 -13.4 0zM732.45 199.45 a6.7 6.7 0 1 0 13.4 0 a6.7 6.7 0 1 0 -13.4 0zM732.45 132.45 a6.7 6.7 0 1 0 13.4 0 a6.7 6.7 0 1 0 -13.4 0zM790.48 299.95 a6.7 6.7 0 1 0 13.4 0 a6.7 6.7 0 1 0 -13.4 0zM732.45 333.45 a6.7 6.7 0 1 0 13.4 0 a6.7 6.7 0 1 0 -13.4 0zM848.5 333.45 a6.7 6.7 0 1 0 13.4 0 a6.7 6.7 0 1 0 -13.4 0zM848.5 400.45 a6.7 6.7 0 1 0 13.4 0 a6.7 6.7 0 1 0 -13.4 0zM790.48 433.95 a6.7 6.7 0 1 0 13.4 0 a6.7 6.7 0 1 0 -13.4 0zM732.45 400.45 a6.7 6.7 0 1 0 13.4 0 a6.7 6.7 0 1 0 -13.4 0zM790.48 500.95 a6.7 6.7 0 1 0 13.4 0 a6.7 6.7 0 1 0 -13.4 0zM848.5 534.45 a6.7 6.7 0 1 0 13.4 0 a6.7 6.7 0 1 0 -13.4 0zM848.5 601.45 a6.7 6.7 0 1 0 13.4 0 a6.7 6.7 0 1 0 -13.4 0zM790.48 634.95 a6.7 6.7 0 1 0 13.4 0 a6.7 6.7 0 1 0 -13.4 0zM732.45 601.45 a6.7 6.7 0 1 0 13.4 0 a6.7 6.7 0 1 0 -13.4 0zM732.45 534.45 a6.7 6.7 0 1 0 13.4 0 a6.7 6.7 0 1 0 -13.4 0zM848.5 -1.55 a6.7 6.7 0 1 0 13.4 0 a6.7 6.7 0 1 0 -13.4 0zM906.53 31.95 a6.7 6.7 0 1 0 13.4 0 a6.7 6.7 0 1 0 -13.4 0zM906.53 98.95 a6.7 6.7 0 1 0 13.4 0 a6.7 6.7 0 1 0 -13.4 0zM790.48 31.95 a6.7 6.7 0 1 0 13.4 0 a6.7 6.7 0 1 0 -13.4 0zM906.53 433.95 a6.7 6.7 0 1 0 13.4 0 a6.7 6.7 0 1 0 -13.4 0zM906.53 500.95 a6.7 6.7 0 1 0 13.4 0 a6.7 6.7 0 1 0 -13.4 0zM964.56 534.45 a6.7 6.7 0 1 0 13.4 0 a6.7 6.7 0 1 0 -13.4 0zM964.56 601.45 a6.7 6.7 0 1 0 13.4 0 a6.7 6.7 0 1 0 -13.4 0zM906.53 634.95 a6.7 6.7 0 1 0 13.4 0 a6.7 6.7 0 1 0 -13.4 0zM964.56 400.45 a6.7 6.7 0 1 0 13.4 0 a6.7 6.7 0 1 0 -13.4 0zM1022.58 433.95 a6.7 6.7 0 1 0 13.4 0 a6.7 6.7 0 1 0 -13.4 0zM1022.58 500.95 a6.7 6.7 0 1 0 13.4 0 a6.7 6.7 0 1 0 -13.4 0zM1080.61 534.45 a6.7 6.7 0 1 0 13.4 0 a6.7 6.7 0 1 0 -13.4 0zM1080.61 601.45 a6.7 6.7 0 1 0 13.4 0 a6.7 6.7 0 1 0 -13.4 0zM1022.58 634.95 a6.7 6.7 0 1 0 13.4 0 a6.7 6.7 0 1 0 -13.4 0zM1138.63 98.95 a6.7 6.7 0 1 0 13.4 0 a6.7 6.7 0 1 0 -13.4 0zM1196.66 132.45 a6.7 6.7 0 1 0 13.4 0 a6.7 6.7 0 1 0 -13.4 0zM1196.66 199.45 a6.7 6.7 0 1 0 13.4 0 a6.7 6.7 0 1 0 -13.4 0zM1138.63 232.95 a6.7 6.7 0 1 0 13.4 0 a6.7 6.7 0 1 0 -13.4 0zM1080.61 199.45 a6.7 6.7 0 1 0 13.4 0 a6.7 6.7 0 1 0 -13.4 0zM1080.61 132.45 a6.7 6.7 0 1 0 13.4 0 a6.7 6.7 0 1 0 -13.4 0zM1138.63 299.95 a6.7 6.7 0 1 0 13.4 0 a6.7 6.7 0 1 0 -13.4 0zM1080.61 333.45 a6.7 6.7 0 1 0 13.4 0 a6.7 6.7 0 1 0 -13.4 0zM1022.58 299.95 a6.7 6.7 0 1 0 13.4 0 a6.7 6.7 0 1 0 -13.4 0zM1022.58 232.95 a6.7 6.7 0 1 0 13.4 0 a6.7 6.7 0 1 0 -13.4 0zM1138.63 634.95 a6.7 6.7 0 1 0 13.4 0 a6.7 6.7 0 1 0 -13.4 0zM1138.63 701.95 a6.7 6.7 0 1 0 13.4 0 a6.7 6.7 0 1 0 -13.4 0zM1080.61 735.45 a6.7 6.7 0 1 0 13.4 0 a6.7 6.7 0 1 0 -13.4 0zM1022.58 701.95 a6.7 6.7 0 1 0 13.4 0 a6.7 6.7 0 1 0 -13.4 0zM1254.68 98.95 a6.7 6.7 0 1 0 13.4 0 a6.7 6.7 0 1 0 -13.4 0zM1312.71 132.45 a6.7 6.7 0 1 0 13.4 0 a6.7 6.7 0 1 0 -13.4 0zM1312.71 199.45 a6.7 6.7 0 1 0 13.4 0 a6.7 6.7 0 1 0 -13.4 0zM1254.68 232.95 a6.7 6.7 0 1 0 13.4 0 a6.7 6.7 0 1 0 -13.4 0zM1254.68 299.95 a6.7 6.7 0 1 0 13.4 0 a6.7 6.7 0 1 0 -13.4 0zM1312.71 333.45 a6.7 6.7 0 1 0 13.4 0 a6.7 6.7 0 1 0 -13.4 0zM1312.71 400.45 a6.7 6.7 0 1 0 13.4 0 a6.7 6.7 0 1 0 -13.4 0zM1254.68 433.95 a6.7 6.7 0 1 0 13.4 0 a6.7 6.7 0 1 0 -13.4 0zM1196.66 400.45 a6.7 6.7 0 1 0 13.4 0 a6.7 6.7 0 1 0 -13.4 0zM1196.66 333.45 a6.7 6.7 0 1 0 13.4 0 a6.7 6.7 0 1 0 -13.4 0zM1196.66 601.45 a6.7 6.7 0 1 0 13.4 0 a6.7 6.7 0 1 0 -13.4 0zM1254.68 634.95 a6.7 6.7 0 1 0 13.4 0 a6.7 6.7 0 1 0 -13.4 0zM1254.68 701.95 a6.7 6.7 0 1 0 13.4 0 a6.7 6.7 0 1 0 -13.4 0zM1196.66 735.45 a6.7 6.7 0 1 0 13.4 0 a6.7 6.7 0 1 0 -13.4 0zM1312.71 -1.55 a6.7 6.7 0 1 0 13.4 0 a6.7 6.7 0 1 0 -13.4 0zM1370.73 31.95 a6.7 6.7 0 1 0 13.4 0 a6.7 6.7 0 1 0 -13.4 0zM1370.73 98.95 a6.7 6.7 0 1 0 13.4 0 a6.7 6.7 0 1 0 -13.4 0zM1254.68 31.95 a6.7 6.7 0 1 0 13.4 0 a6.7 6.7 0 1 0 -13.4 0zM1370.73 500.95 a6.7 6.7 0 1 0 13.4 0 a6.7 6.7 0 1 0 -13.4 0zM1428.76 534.45 a6.7 6.7 0 1 0 13.4 0 a6.7 6.7 0 1 0 -13.4 0zM1428.76 601.45 a6.7 6.7 0 1 0 13.4 0 a6.7 6.7 0 1 0 -13.4 0zM1370.73 634.95 a6.7 6.7 0 1 0 13.4 0 a6.7 6.7 0 1 0 -13.4 0zM1312.71 601.45 a6.7 6.7 0 1 0 13.4 0 a6.7 6.7 0 1 0 -13.4 0zM1312.71 534.45 a6.7 6.7 0 1 0 13.4 0 a6.7 6.7 0 1 0 -13.4 0zM1428.76 -1.55 a6.7 6.7 0 1 0 13.4 0 a6.7 6.7 0 1 0 -13.4 0zM1486.78 31.95 a6.7 6.7 0 1 0 13.4 0 a6.7 6.7 0 1 0 -13.4 0zM1486.78 98.95 a6.7 6.7 0 1 0 13.4 0 a6.7 6.7 0 1 0 -13.4 0zM1428.76 132.45 a6.7 6.7 0 1 0 13.4 0 a6.7 6.7 0 1 0 -13.4 0z" fill="rgba(52, 86, 121, 1)"></path><path d="M4.17 -33.17L33.62 -16.17L33.62 17.83L4.17 34.83L-25.28 17.83L-25.28 -16.17zM33.62 323.83L63.06 340.83L63.06 374.83L33.62 391.83L4.17 374.83L4.17 340.83zM63.06 -33.17L92.51 -16.17L92.51 17.83L63.06 34.83L33.62 17.83L33.62 -16.17zM92.51 425.83L121.95 442.83L121.95 476.83L92.51 493.83L63.06 476.83L63.06 442.83zM121.95 -33.17L151.4 -16.17L151.4 17.83L121.95 34.83L92.51 17.83L92.51 -16.17zM121.95 68.83L151.4 85.83L151.4 119.83L121.95 136.83L92.51 119.83L92.51 85.83zM151.4 119.83L180.84 136.83L180.84 170.83L151.4 187.83L121.95 170.83L121.95 136.83zM121.95 374.83L151.4 391.83L151.4 425.83L121.95 442.83L92.51 425.83L92.51 391.83zM210.29 17.83L239.74 34.83L239.74 68.83L210.29 85.83L180.84 68.83L180.84 34.83zM180.84 272.83L210.29 289.83L210.29 323.83L180.84 340.83L151.4 323.83L151.4 289.83zM180.84 374.83L210.29 391.83L210.29 425.83L180.84 442.83L151.4 425.83L151.4 391.83zM180.84 476.83L210.29 493.83L210.29 527.83L180.84 544.83L151.4 527.83L151.4 493.83zM269.18 17.83L298.63 34.83L298.63 68.83L269.18 85.83L239.74 68.83L239.74 34.83zM269.18 221.83L298.63 238.83L298.63 272.83L269.18 289.83L239.74 272.83L239.74 238.83zM298.63 170.83L328.07 187.83L328.07 221.83L298.63 238.83L269.18 221.83L269.18 187.83zM328.07 221.83L357.52 238.83L357.52 272.83L328.07 289.83L298.63 272.83L298.63 238.83zM386.96 119.83L416.41 136.83L416.41 170.83L386.96 187.83L357.52 170.83L357.52 136.83zM386.96 323.83L416.41 340.83L416.41 374.83L386.96 391.83L357.52 374.83L357.52 340.83zM445.86 119.83L475.3 136.83L475.3 170.83L445.86 187.83L416.41 170.83L416.41 136.83zM475.3 -33.17L504.75 -16.17L504.75 17.83L475.3 34.83L445.86 17.83L445.86 -16.17zM504.75 17.83L534.19 34.83L534.19 68.83L504.75 85.83L475.3 68.83L475.3 34.83zM475.3 272.83L504.75 289.83L504.75 323.83L475.3 340.83L445.86 323.83L445.86 289.83zM504.75 323.83L534.19 340.83L534.19 374.83L504.75 391.83L475.3 374.83L475.3 340.83zM504.75 425.83L534.19 442.83L534.19 476.83L504.75 493.83L475.3 476.83L475.3 442.83zM563.64 323.83L593.08 340.83L593.08 374.83L563.64 391.83L534.19 374.83L534.19 340.83zM534.19 374.83L563.64 391.83L563.64 425.83L534.19 442.83L504.75 425.83L504.75 391.83zM593.08 170.83L622.53 187.83L622.53 221.83L593.08 238.83L563.64 221.83L563.64 187.83zM622.53 425.83L651.98 442.83L651.98 476.83L622.53 493.83L593.08 476.83L593.08 442.83zM651.98 170.83L681.42 187.83L681.42 221.83L651.98 238.83L622.53 221.83L622.53 187.83zM651.98 476.83L681.42 493.83L681.42 527.83L651.98 544.83L622.53 527.83L622.53 493.83zM710.87 476.83L740.31 493.83L740.31 527.83L710.87 544.83L681.42 527.83L681.42 493.83zM740.31 527.83L769.76 544.83L769.76 578.83L740.31 595.83L710.87 578.83L710.87 544.83zM799.2 119.83L828.65 136.83L828.65 170.83L799.2 187.83L769.76 170.83L769.76 136.83zM799.2 221.83L828.65 238.83L828.65 272.83L799.2 289.83L769.76 272.83L769.76 238.83zM799.2 425.83L828.65 442.83L828.65 476.83L799.2 493.83L769.76 476.83L769.76 442.83zM828.65 68.83L858.1 85.83L858.1 119.83L828.65 136.83L799.2 119.83L799.2 85.83zM828.65 170.83L858.1 187.83L858.1 221.83L828.65 238.83L799.2 221.83L799.2 187.83zM828.65 374.83L858.1 391.83L858.1 425.83L828.65 442.83L799.2 425.83L799.2 391.83zM887.54 170.83L916.99 187.83L916.99 221.83L887.54 238.83L858.1 221.83L858.1 187.83zM916.99 323.83L946.43 340.83L946.43 374.83L916.99 391.83L887.54 374.83L887.54 340.83zM916.99 527.83L946.43 544.83L946.43 578.83L916.99 595.83L887.54 578.83L887.54 544.83zM975.88 119.83L1005.32 136.83L1005.32 170.83L975.88 187.83L946.43 170.83L946.43 136.83zM946.43 374.83L975.88 391.83L975.88 425.83L946.43 442.83L916.99 425.83L916.99 391.83zM975.88 425.83L1005.32 442.83L1005.32 476.83L975.88 493.83L946.43 476.83L946.43 442.83zM1005.32 -33.17L1034.77 -16.17L1034.77 17.83L1005.32 34.83L975.88 17.83L975.88 -16.17zM1034.77 119.83L1064.22 136.83L1064.22 170.83L1034.77 187.83L1005.32 170.83L1005.32 136.83zM1034.77 527.83L1064.22 544.83L1064.22 578.83L1034.77 595.83L1005.32 578.83L1005.32 544.83zM1093.66 323.83L1123.11 340.83L1123.11 374.83L1093.66 391.83L1064.22 374.83L1064.22 340.83zM1182 -33.17L1211.44 -16.17L1211.44 17.83L1182 34.83L1152.55 17.83L1152.55 -16.17zM1270.34 17.83L1299.78 34.83L1299.78 68.83L1270.34 85.83L1240.89 68.83L1240.89 34.83zM1240.89 272.83L1270.34 289.83L1270.34 323.83L1240.89 340.83L1211.44 323.83L1211.44 289.83zM1270.34 323.83L1299.78 340.83L1299.78 374.83L1270.34 391.83L1240.89 374.83L1240.89 340.83zM1329.23 17.83L1358.67 34.83L1358.67 68.83L1329.23 85.83L1299.78 68.83L1299.78 34.83zM1299.78 68.83L1329.23 85.83L1329.23 119.83L1299.78 136.83L1270.34 119.83L1270.34 85.83zM1329.23 119.83L1358.67 136.83L1358.67 170.83L1329.23 187.83L1299.78 170.83L1299.78 136.83zM1329.23 221.83L1358.67 238.83L1358.67 272.83L1329.23 289.83L1299.78 272.83L1299.78 238.83zM1358.67 -33.17L1388.12 -16.17L1388.12 17.83L1358.67 34.83L1329.23 17.83L1329.23 -16.17zM1388.12 527.83L1417.56 544.83L1417.56 578.83L1388.12 595.83L1358.67 578.83L1358.67 544.83zM1447.01 119.83L1476.45 136.83L1476.45 170.83L1447.01 187.83L1417.56 170.83L1417.56 136.83zM1447.01 221.83L1476.45 238.83L1476.45 272.83L1447.01 289.83L1417.56 272.83L1417.56 238.83zM1417.56 272.83L1447.01 289.83L1447.01 323.83L1417.56 340.83L1388.12 323.83L1388.12 289.83z" stroke="rgba(0, 0, 0, 0.93)" stroke-width="2"></path></g><defs><mask id="SvgjsMask1464"><rect width="1440" height="560" fill="#ffffff"></rect></mask><linearGradient x1="15.28%" y1="-39.29%" x2="84.72%" y2="139.29%" gradientUnits="userSpaceOnUse" id="SvgjsLinearGradient1465"><stop stop-color="#0e2a47" offset="0"></stop><stop stop-color="rgba(0, 30, 68, 1)" offset="1"></stop></linearGradient></defs></svg>